PathFileType	4	(X/Y/Z)	D:\TRACE\v60_Jaco2_6-2-23\BothDRS_Motion3_4-platform.trc
DataRate	CameraRate	NumFrames	NumMarkers	Units	OrigDataRate	OrigDataStartFrame	OrigNumFrames
100.00	100.00	      42	5	mm	100.00	2626	      7000
Frame#	Time	Left_Front			Right_Front			Left_Aft			Right_Aft			Post			
		X1	Y1	Z1	X2	Y2	Z2	X3	Y3	Z3	X4	Y4	Z4	X5	Y5	Z5	

2626	26.250	-797.83826	63.94352	-635.96582	772.71661	61.74353	-613.29443	-728.78375	-25.59479	496.92694	685.45410	-36.05835	599.68176	-3.60452	1382.58508	-841.40021	
2627	26.260	-797.55322	63.00909	-635.79413	772.77020	61.19345	-613.42889	-728.63367	-25.46591	496.79932	685.69653	-35.36139	599.56946	-3.31170	1381.66895	-843.47028	
2628	26.270	-797.65698	62.30165	-636.40161	772.84869	60.58363	-613.64130	-728.62372	-25.15014	496.84494	685.80316	-34.89869	599.37097	-3.25610	1381.01892	-845.16205	
2629	26.280	-797.37524	61.68262	-636.66333	773.01770	59.79445	-613.73291	-728.51691	-24.58924	496.59488	685.81421	-34.50505	599.28613	-3.01818	1380.14978	-846.70142	
2630	26.290	-797.07617	61.02476	-637.15405	773.08826	59.19111	-613.97260	-728.27344	-23.95432	496.32800	685.95374	-34.25555	599.16302	-3.21537	1379.37976	-848.31921	
2631	26.300	-796.74957	60.73061	-636.89417	773.35480	58.76698	-614.20166	-728.01843	-23.56034	496.27670	686.40112	-33.38272	599.13678	-2.99390	1378.48254	-849.93091	
2632	26.310	-797.00848	60.26765	-637.74017	773.65057	58.05304	-614.39618	-727.82880	-23.00756	496.13876	686.56006	-32.64326	598.90747	-2.50291	1377.67163	-851.75623	
2633	26.320	-796.76495	59.21789	-637.58655	773.70087	57.29295	-614.69580	-727.58582	-22.66637	496.13040	686.72479	-32.29391	598.81409	-2.27389	1376.72937	-852.88580	
2634	26.330	-796.61407	58.49143	-637.62140	774.03430	56.41169	-614.83069	-727.27051	-22.14243	495.93802	686.32318	-31.85114	598.91656	-1.78975	1375.81628	-854.69476	
2635	26.340	-796.57800	57.91131	-637.91949	774.16541	55.77453	-615.01630	-727.11298	-21.61664	495.64426	686.92767	-30.85840	598.63751	-2.03631	1374.39783	-855.84149	
2636	26.350	-796.40997	56.96342	-638.32288	774.35413	54.99448	-615.34259	-726.89197	-21.23343	495.51990	687.43500	-30.19407	598.48407	-1.98491	1373.55078	-857.01917	
2637	26.360	-796.32385	56.06742	-638.58679	774.70081	54.16737	-615.63910	-726.50604	-20.27264	495.49451	687.44141	-29.59723	598.32190	-1.39059	1372.42871	-858.97461	
2638	26.370	-795.65637	55.39956	-638.98682	774.84033	53.24865	-615.97443	-726.38129	-19.80978	495.30664	687.69568	-28.89796	598.07153	-1.42968	1371.44812	-860.49677	
2639	26.380	-795.43793	54.35121	-639.17523	775.25751	52.35407	-616.06494	-726.35638	-19.34043	495.10858	687.99054	-28.15359	597.83502	-0.73380	1369.96985	-862.70868	
2640	26.390	-795.03113	53.42439	-639.16406	775.44763	51.57703	-616.35999	-725.99091	-18.57710	494.96359	688.26666	-27.43003	597.66107	-0.59397	1369.06213	-864.55353	
2641	26.400	-794.69440	52.55930	-639.23907	775.72565	50.70728	-616.64606	-725.74664	-18.04830	494.83884	688.56610	-26.97959	597.65540	-0.36452	1367.68616	-866.92505	
2642	26.410	-794.45148	51.74318	-639.69952	776.02155	49.92647	-616.82672	-725.43256	-17.43640	494.53647	688.81909	-26.04683	597.54071	-0.26660	1366.88721	-869.39063	
2643	26.420	-794.09479	51.06487	-639.86633	776.39600	49.03095	-617.09540	-725.01154	-16.86084	494.52625	689.11432	-25.33570	597.29333	0.18754	1365.30774	-871.86267	
2644	26.430	-793.85901	50.02834	-639.82434	776.60303	48.16710	-617.34613	-724.78979	-16.06751	494.38239	689.29016	-24.80576	596.91577	0.80443	1364.49487	-874.24377	
2645	26.440	-793.52509	48.82190	-640.05933	776.89252	47.25493	-617.47534	-724.41168	-15.56282	494.13885	689.83148	-23.84421	596.93408	1.23571	1363.16736	-876.70715	
2646	26.450	-793.14545	47.92519	-641.03717	777.19952	46.35520	-617.87256	-724.23895	-14.91735	493.87354	690.09198	-23.11315	596.94385	1.11046	1362.05981	-878.48346	
2647	26.460	-792.91980	47.51060	-641.18640	777.50006	45.45099	-618.09216	-723.61438	-14.38064	493.82175	690.12439	-22.29458	596.66571	1.52371	1360.56018	-880.88403	
2648	26.470	-792.71692	46.51924	-641.60767	777.87128	44.56113	-618.41003	-723.60022	-13.50565	493.52335	690.65723	-21.39079	596.55261	1.70711	1359.49548	-882.49481	
2649	26.480	-792.52429	45.29018	-641.53375	778.25983	43.58680	-618.67328	-723.20624	-12.86630	493.44363	690.99176	-20.80321	596.26855	2.45932	1358.11633	-884.77075	
2650	26.490	-792.32843	44.69003	-641.90350	778.52637	42.60987	-619.05475	-722.78192	-12.16658	493.22879	691.09906	-19.83676	595.98578	2.34243	1356.73730	-886.24127	
2651	26.500	-791.70520	43.55424	-642.36383	778.97992	41.69681	-619.42517	-722.47473	-11.75380	493.13712	691.81177	-18.99261	595.82867	2.89530	1355.34253	-888.40619	
2652	26.510	-791.17108	42.56659	-642.43823	779.18243	40.55469	-619.66467	-722.05267	-10.78320	492.89453	692.07758	-18.26022	595.61194	3.21307	1353.77783	-890.28271	
2653	26.520	-790.84119	41.12770	-642.49298	779.61823	39.51694	-619.95203	-721.76587	-9.95380	492.54074	692.41351	-17.42612	595.37292	3.91453	1352.43628	-892.33417	
2654	26.530	-790.53668	40.32404	-642.76007	779.82245	38.67544	-620.21759	-721.63708	-9.05199	492.17825	692.73309	-16.40512	594.81360	4.49305	1351.15869	-894.69653	
2655	26.540	-790.13824	39.71321	-643.15881	780.30420	37.64989	-620.50616	-721.07776	-8.72081	492.18222	693.01526	-15.76396	595.07892	4.36741	1349.80212	-897.00476	
2656	26.550	-790.14630	38.94201	-643.93079	780.63757	36.67888	-620.73358	-720.80634	-8.12045	491.84512	693.79010	-14.77830	594.81409	4.54222	1348.22913	-899.70697	
2657	26.560	-789.65155	37.64993	-643.77203	781.03888	35.54876	-621.08954	-720.46515	-7.14291	491.70444	693.75574	-13.82240	594.78192	5.12645	1347.04871	-902.38403	
2658	26.570	-789.10425	36.56394	-644.08862	781.36481	34.44187	-621.36328	-720.07141	-6.43920	491.58258	694.08350	-13.23115	594.50287	5.72191	1345.41016	-905.08124	
2659	26.580	-788.54645	35.12013	-644.62665	781.78351	33.25525	-621.76526	-719.56006	-5.87256	491.40616	694.92072	-11.85498	594.18359	5.82234	1344.05115	-907.54083	
2660	26.590	-788.62915	34.59272	-644.98199	782.07806	32.45213	-622.06079	-719.31201	-5.12412	491.11349	695.13251	-11.27582	594.14087	6.43280	1342.57544	-910.06989	
2661	26.600	-788.16772	33.33665	-644.90778	782.55750	31.23897	-622.29272	-718.93164	-4.52264	490.67328	695.12109	-10.60162	593.82654	7.35740	1340.87817	-912.81238	
2662	26.610	-787.89929	32.41293	-645.16919	782.74615	30.24630	-622.45868	-718.50946	-3.49740	490.56110	695.66461	-9.59909	593.66986	7.07230	1339.51843	-914.98730	
2663	26.620	-787.49982	31.41360	-645.46002	783.20648	29.30368	-622.82233	-718.38538	-2.87270	490.34271	696.17615	-8.80764	593.42242	7.54012	1337.81421	-917.64044	
2664	26.630	-786.84283	30.03982	-645.90240	783.55786	28.31912	-622.95886	-717.83380	-2.08717	490.20395	696.17181	-7.97971	593.16040	7.63672	1336.62024	-919.63007	
2665	26.640	-786.59021	29.24443	-645.97278	784.01172	27.27046	-623.26208	-717.20050	-2.18498	490.18503	696.87372	-6.82646	592.94110	8.20226	1335.08752	-921.91254	
2666	26.650	-785.92010	28.19891	-645.73444	784.32727	26.15156	-623.59973	-716.87329	-1.18248	490.06851	697.06335	-6.26253	592.70288	8.98937	1333.78577	-924.07031	
2667	26.660	-786.00592	27.16062	-646.64679	784.59863	25.18117	-623.76422	-716.63641	-0.38487	489.85843	697.38214	-5.76581	592.60065	8.83848	1332.46240	-926.08167	
